# xmcd
#
# Track frame offsets:
#	182
#	15825
#	29595
#	43222
#	58435
#	72385
#	87142
#	100945
#	115245
#	127510
#	140375
#	154202
#	167825
#	181962
#	196910
#	210002
#	224170
#	239397
#	252855
#
# Disc length: 3540 seconds
#
# Revision: 0
# Processed by: cddbd v1.5.2PL0 Copyright (c) Steve Scherf et al.
# Submitted via: EasyCDDAExtractor 10.0.5.1
#
DISCID=0b0dd213
DTITLE=Berthe Sylva - Les Roses Blanches
DYEAR=1900
DGENRE=Rétro
TTITLE0=Les Roses Blanches
TTITLE1=On N'a Pas Tous Les Jours 20 Ans
TTITLE2=Mon Vieux Pataud
TTITLE3=Le P'tit Boscot
TTITLE4=Du Gris
TTITLE5=Le Tango Des Fauvettes
TTITLE6=Frou Frou
TTITLE7=Comme Un Moineau
TTITLE8=Ou Sont Tous Mes Amants
TTITLE9=C'est Un Mauvais Garçon
TTITLE10=Tel Qu'il Est
TTITLE11=Les Mômes De La Cloche
TTITLE12=Je N'ai Qu'une Maman
TTITLE13=La Légende Des Flots Bleus
TTITLE14=Le Raccomodeur De Faïence
TTITLE15=Fleur De Misère
TTITLE16=Coeur De Voyou
TTITLE17=C'est Mon Gigolo
TTITLE18=Sous Les Toits De Paris
EXTD=
EXTT0=
EXTT1=
EXTT2=
EXTT3=
EXTT4=
EXTT5=
EXTT6=
EXTT7=
EXTT8=
EXTT9=
EXTT10=
EXTT11=
EXTT12=
EXTT13=
EXTT14=
EXTT15=
EXTT16=
EXTT17=
EXTT18=
PLAYORDER=
